#N canvas 586 51 361 405 10;
#X obj 59 189 pack f f;
#X obj 148 189 pack f f;
#X floatatom 22 69 5 0 0 0 - - -, f 5;
#X obj 22 39 int;
#X obj 99 75 notein 1;
#X obj 59 231 noteout 1;
#X obj 148 231 noteout 2;
#X obj 99 122 moses 60;
#X obj 267 14 vsl 40 200 0 127 0 0 empty empty empty 0 -9 0 10 -262144
-1 -1 9200 1;
#X floatatom 268 246 5 0 0 0 - - -, f 5;
#X obj 267 224 int;
#X connect 0 0 5 0;
#X connect 1 0 6 0;
#X connect 2 0 7 1;
#X connect 3 0 2 0;
#X connect 4 0 7 0;
#X connect 4 1 1 1;
#X connect 4 1 0 1;
#X connect 7 0 0 0;
#X connect 7 1 1 0;
#X connect 8 0 10 0;
#X connect 10 0 9 0;
#X connect 10 0 7 1;
