#N canvas 358 159 1202 759 10;
#X obj 182 274 pack f f;
#X obj 307 318 spigot 0;
#X obj 307 347 stripnote;
#X obj 518 142 t f f;
#X obj 515 174 sel 0;
#X msg 515 196 128;
#X obj 515 218 t f b;
#X obj 513 249 until;
#X obj 513 274 f 0;
#X obj 550 274 + 1;
#X msg 566 250 0;
#X msg 513 301 \$1 0;
#X obj 308 445 pack f f;
#X obj 87 91 / 683;
#X obj 243 91 / 683;
#X obj 409 82 / 683;
#X obj 12 115 +;
#X obj 173 117 +;
#X obj 340 117 +;
#X obj 11 149 + 0.5;
#X obj 173 146 + 0.5;
#X obj 341 146 + 0.5;
#X obj 12 181 int;
#X obj 172 184 int;
#X obj 341 181 int;
#X obj 53 18 bng 15 250 50 0 empty empty empty 17 7 0 10 -262144 -1
-1;
#X obj 210 18 bng 15 250 50 0 empty empty empty 17 7 0 10 -262144 -1
-1;
#X obj 377 17 bng 15 250 50 0 empty empty empty 17 7 0 10 -262144 -1
-1;
#X obj 18 219 - 12;
#X obj 172 221 - 12;
#X obj 340 221 - 12;
#X text 110 0 strumpad midi 14/15/16;
#X text 23 596 http://johnboyd.users.sonic.net/qchordSUS.pd;
#X obj 14 55 notein 14;
#X obj 88 56 bendin 14;
#X obj 171 59 notein 15;
#X obj 246 58 bendin 15;
#X obj 338 55 notein 16;
#X obj 415 54 bendin 16;
#X obj 306 476 noteout 1;
#X text 296 497 midi 1 out;
#X obj 518 109 == 100;
#X obj 523 55 notein 9;
#X text 520 12 bass midi ch 9 (release);
#X obj 395 234 % 12;
#X obj 460 232 % 12;
#X obj 429 275 -;
#X obj 311 404 + 12;
#X obj 256 380 spigot;
#X obj 311 380 spigot;
#X floatatom 407 427 5 0 0 0 - - -;
#X msg 390 392 0;
#X msg 469 392 1;
#X obj 430 363 moses 1;
#X msg 430 392 1;
#X msg 509 392 0;
#X floatatom 472 428 5 0 0 0 - - -;
#X obj 247 479 print g;
#X obj 430 340 == 0;
#X obj 540 87 noteout 1;
#X text 20 533 play with bass ctl and manual chord lights on. Sustain
the strum notes by holding the chord button(s) then lift to release.
;
#X text 566 301 send all notes off after the chord button is released
(0-127);
#X text 510 346 comparing bass and guitar roots \, shift note up an
octave after root notes to simulate normal guitar chord inversions
;
#X text 135 349 send only note on messages;
#X connect 0 0 1 0;
#X connect 1 0 2 0;
#X connect 2 0 44 0;
#X connect 2 0 48 0;
#X connect 2 0 49 0;
#X connect 2 1 12 1;
#X connect 3 0 1 1;
#X connect 3 1 4 0;
#X connect 4 0 5 0;
#X connect 5 0 6 0;
#X connect 6 0 7 0;
#X connect 6 1 10 0;
#X connect 7 0 8 0;
#X connect 8 0 9 0;
#X connect 8 0 11 0;
#X connect 9 0 8 1;
#X connect 10 0 8 1;
#X connect 11 0 39 0;
#X connect 12 0 39 0;
#X connect 12 0 57 0;
#X connect 13 0 16 1;
#X connect 14 0 17 1;
#X connect 15 0 18 1;
#X connect 16 0 19 0;
#X connect 17 0 20 0;
#X connect 18 0 21 0;
#X connect 19 0 22 0;
#X connect 20 0 23 0;
#X connect 21 0 24 0;
#X connect 22 0 28 0;
#X connect 23 0 29 0;
#X connect 24 0 30 0;
#X connect 28 0 0 0;
#X connect 29 0 0 0;
#X connect 30 0 0 0;
#X connect 33 0 16 0;
#X connect 33 1 0 1;
#X connect 33 1 25 0;
#X connect 34 0 13 0;
#X connect 35 0 17 0;
#X connect 35 1 0 1;
#X connect 35 1 26 0;
#X connect 36 0 14 0;
#X connect 37 0 18 0;
#X connect 37 1 0 1;
#X connect 37 1 27 0;
#X connect 38 0 15 0;
#X connect 41 0 3 0;
#X connect 42 0 45 0;
#X connect 42 0 59 0;
#X connect 42 1 41 0;
#X connect 42 1 59 1;
#X connect 44 0 46 0;
#X connect 45 0 46 1;
#X connect 46 0 58 0;
#X connect 47 0 12 0;
#X connect 48 0 12 0;
#X connect 49 0 47 0;
#X connect 50 0 48 1;
#X connect 51 0 50 0;
#X connect 52 0 50 0;
#X connect 53 0 51 0;
#X connect 53 0 54 0;
#X connect 53 1 52 0;
#X connect 53 1 55 0;
#X connect 54 0 56 0;
#X connect 55 0 56 0;
#X connect 56 0 49 1;
#X connect 58 0 53 0;
